<svg xmlns="http://www.w3.org/2000/svg" width="64" height="64" viewBox="0 0 64 64">
  <!-- Simple UFO inspired by the provided reference: teal body with dark outline -->
  <defs>
    <linearGradient id="ufoBody" x1="0" y1="0" x2="0" y2="1">
      <stop offset="0" stop-color="#7bd0c6"/>
      <stop offset="1" stop-color="#66c3b9"/>
    </linearGradient>
  </defs>
  <g stroke="#0f4b4b" stroke-width="2" stroke-linejoin="round" stroke-linecap="round">
    <!-- Saucer shadow -->
    <ellipse cx="32" cy="50" rx="16" ry="4" fill="#0a2a2a" opacity="0.25" stroke="none"/>
    <!-- Lower disc -->
    <path d="M8 38c6-8 42-8 48 0 1.6 2.3-6 8-24 8S6.4 40.3 8 38z" fill="url(#ufoBody)"/>
    <!-- Rim outline -->
    <path d="M8 38c6-8 42-8 48 0" fill="none"/>
    <!-- Dome -->
    <path d="M18 32c3-9 25-9 28 0" fill="url(#ufoBody)"/>
    <!-- Dome base -->
    <path d="M18 32c10 4 18 4 28 0" fill="none"/>
    <!-- Underside pod -->
    <ellipse cx="32" cy="45" rx="10" ry="3.5" fill="#5fbab0"/>
    <!-- Windows / vents on dome -->
    <line x1="32" y1="26" x2="32" y2="31"/>
    <line x1="26" y1="27" x2="26" y2="31"/>
    <line x1="38" y1="27" x2="38" y2="31"/>
    <!-- Portholes on saucer -->
    <circle cx="16" cy="37" r="1.8" fill="#0f4b4b"/>
    <circle cx="20" cy="37" r="1.8" fill="#0f4b4b"/>
    <circle cx="48" cy="37" r="1.8" fill="#0f4b4b"/>
    <circle cx="44" cy="37" r="1.8" fill="#0f4b4b"/>
  </g>
</svg>

