<svg xmlns="http://www.w3.org/2000/svg" width="64" height="64" viewBox="0 0 64 64"><defs><linearGradient id="ufoBody" x1="0" x2="0" y1="0" y2="1"><stop offset="0" stop-color="#7bd0c6"/><stop offset="1" stop-color="#66c3b9"/></linearGradient></defs><g stroke="#0f4b4b" stroke-linecap="round" stroke-linejoin="round" stroke-width="2"><ellipse cx="32" cy="50" fill="#0a2a2a" stroke="none" opacity=".25" rx="16" ry="4"/><path fill="url(#ufoBody)" d="M8 38c6-8 42-8 48 0 1.6 2.3-6 8-24 8S6.4 40.3 8 38z"/><path fill="none" d="M8 38c6-8 42-8 48 0"/><path fill="url(#ufoBody)" d="M18 32c3-9 25-9 28 0"/><path fill="none" d="M18 32c10 4 18 4 28 0"/><ellipse cx="32" cy="45" fill="#5fbab0" rx="10" ry="3.5"/><line x1="32" x2="32" y1="26" y2="31"/><line x1="26" x2="26" y1="27" y2="31"/><line x1="38" x2="38" y1="27" y2="31"/><circle cx="16" cy="37" r="1.8" fill="#0f4b4b"/><circle cx="20" cy="37" r="1.8" fill="#0f4b4b"/><circle cx="48" cy="37" r="1.8" fill="#0f4b4b"/><circle cx="44" cy="37" r="1.8" fill="#0f4b4b"/></g></svg>